<svg width="7" height="14" viewBox="0 0 7 14" fill="none" xmlns="http://www.w3.org/2000/svg">
    <path
        d="M0.188113 1.18038C0.128024 1.11359 0.0810474 1.03502 0.0498661 0.949163C0.0186848 0.863304 0.0039089 0.771834 0.00638282 0.679976C0.00885675 0.588119 0.0285318 0.497673 0.0642843 0.413802C0.100037 0.329931 0.151167 0.254278 0.214755 0.191162C0.278343 0.128047 0.353144 0.0787043 0.434887 0.0459527C0.516631 0.013201 0.603714 -0.00231868 0.691168 0.000279837C0.778621 0.00287835 0.864731 0.0235441 0.94458 0.0610972C1.02443 0.0986502 1.09646 0.152355 1.15655 0.219146L6.81794 6.51545C6.93486 6.64534 7 6.81732 7 6.99607C7 7.17482 6.93486 7.34679 6.81794 7.47669L1.15655 13.7737C1.09685 13.8419 1.02484 13.8971 0.944699 13.9358C0.864556 13.9746 0.777877 13.9963 0.689696 13.9996C0.601515 14.0029 0.51359 13.9877 0.431029 13.955C0.348468 13.9223 0.272916 13.8727 0.208762 13.8091C0.144608 13.7454 0.0931309 13.669 0.0573201 13.5843C0.0215093 13.4996 0.00207914 13.4083 0.000157945 13.3156C-0.00176325 13.223 0.0138627 13.1308 0.0461287 13.0446C0.0783946 12.9583 0.126657 12.8797 0.188113 12.8132L5.41791 6.99607L0.188113 1.18038Z"
        fill="#1F2937" />
</svg>
    