<svg width="14" height="14" viewBox="0 0 14 14" fill="none" xmlns="http://www.w3.org/2000/svg">
    <path
        d="M9.72387 0.733751C10.1936 0.264004 10.8306 6.56439e-05 11.495 1.2243e-08C12.1593 -6.56194e-05 12.7964 0.263747 13.2662 0.733401C13.736 1.20306 13.9999 1.84008 14 2.50434C14.0001 3.1686 13.7362 3.80567 13.2665 4.27542L12.6421 4.90046L9.10017 1.35809L9.72387 0.733751ZM8.35818 2.10072L1.35824 9.09937C1.07389 9.38371 0.873987 9.74133 0.780742 10.1325L0.0142488 13.3536C-0.00650491 13.4408 -0.0045591 13.5319 0.0199007 13.6182C0.0443606 13.7045 0.0905188 13.7831 0.153973 13.8464C0.217428 13.9098 0.296062 13.9559 0.382378 13.9803C0.468694 14.0046 0.559812 14.0065 0.647044 13.9856L3.86772 13.2185C4.25914 13.1254 4.61705 12.9255 4.90161 12.641L11.9001 5.64239L8.35818 2.10072Z"
        fill="#1F2937" />
</svg>